<svg xmlns="http://www.w3.org/2000/svg" viewBox="0 0 256 256" focusable="false" color="var(--token-549636bd-f0eb-48d8-93da-850d06436e46, rgb(241, 180, 62)) /* {&quot;name&quot;:&quot;Yellow&quot;} */" style="user-select: none; width: 100%; height: 100%; display: inline-block; fill: var(--token-549636bd-f0eb-48d8-93da-850d06436e46, rgb(241, 180, 62)) ; flex-shrink: 0; cursor: auto;"><g color="var(--token-549636bd-f0eb-48d8-93da-850d06436e46, rgb(241, 180, 62)) /* {&quot;name&quot;:&quot;Yellow&quot;} */" weight="duotone"><path d="M33.1,74.6A8.1,8.1,0,0,0,32,78.7v98.6a8.1,8.1,0,0,0,4.1,7l88,49.5a7.6,7.6,0,0,0,3.9,1h0l.9-106.8L33.1,74.6Z" opacity="0.2"></path><path d="M224,177.3V78.7a8.1,8.1,0,0,0-4.1-7l-88-49.5a7.8,7.8,0,0,0-7.8,0l-88,49.5a8.1,8.1,0,0,0-4.1,7v98.6a8.1,8.1,0,0,0,4.1,7l88,49.5a7.8,7.8,0,0,0,7.8,0l88-49.5A8.1,8.1,0,0,0,224,177.3Z" fill="none" stroke="var(--token-549636bd-f0eb-48d8-93da-850d06436e46, rgb(241, 180, 62)) /* {&quot;name&quot;:&quot;Yellow&quot;} */" stroke-linecap="round" stroke-linejoin="round" stroke-width="16"></path><polyline points="222.9 74.6 128.9 128 33.1 74.6" fill="none" stroke="var(--token-549636bd-f0eb-48d8-93da-850d06436e46, rgb(241, 180, 62)) /* {&quot;name&quot;:&quot;Yellow&quot;} */" stroke-linecap="round" stroke-linejoin="round" stroke-width="16"></polyline><line x1="128.9" y1="128" x2="128" y2="234.8" fill="none" stroke="var(--token-549636bd-f0eb-48d8-93da-850d06436e46, rgb(241, 180, 62)) /* {&quot;name&quot;:&quot;Yellow&quot;} */" stroke-linecap="round" stroke-linejoin="round" stroke-width="16"></line></g></svg>