<svg xmlns="http://www.w3.org/2000/svg" viewBox="0 0 256 256" focusable="false" color="var(--token-549636bd-f0eb-48d8-93da-850d06436e46, rgb(241, 180, 62)) /* {&quot;name&quot;:&quot;Yellow&quot;} */" style="user-select: none; width: 100%; height: 100%; display: inline-block; fill: var(--token-549636bd-f0eb-48d8-93da-850d06436e46, rgb(241, 180, 62)) ; flex-shrink: 0; cursor: auto;"><g color="var(--token-549636bd-f0eb-48d8-93da-850d06436e46, rgb(241, 180, 62)) /* {&quot;name&quot;:&quot;Yellow&quot;} */" weight="duotone"><path d="M120,56,60.3,78.4a8.1,8.1,0,0,0-5.1,6.2L32,224l139.5-23.2a7.9,7.9,0,0,0,6.1-5.1L200,136Zm-4,104a20,20,0,1,1,20-20A20.1,20.1,0,0,1,116,160Z" opacity="0.2"></path><circle cx="116" cy="140" r="20" fill="none" stroke="var(--token-549636bd-f0eb-48d8-93da-850d06436e46, rgb(241, 180, 62)) /* {&quot;name&quot;:&quot;Yellow&quot;} */" stroke-linecap="round" stroke-linejoin="round" stroke-width="16"></circle><line x1="32" y1="224" x2="101.9" y2="154.1" fill="none" stroke="var(--token-549636bd-f0eb-48d8-93da-850d06436e46, rgb(241, 180, 62)) /* {&quot;name&quot;:&quot;Yellow&quot;} */" stroke-linecap="round" stroke-linejoin="round" stroke-width="16"></line><path d="M32,224l139.5-23.2a7.9,7.9,0,0,0,6.1-5.1L200,136,120,56,60.3,78.4a8.1,8.1,0,0,0-5.1,6.2Z" fill="none" stroke="var(--token-549636bd-f0eb-48d8-93da-850d06436e46, rgb(241, 180, 62)) /* {&quot;name&quot;:&quot;Yellow&quot;} */" stroke-linecap="round" stroke-linejoin="round" stroke-width="16"></path><path d="M200,136l26.3-26.3a8,8,0,0,0,0-11.4L157.7,29.7a8,8,0,0,0-11.4,0L120,56" fill="none" stroke="var(--token-549636bd-f0eb-48d8-93da-850d06436e46, rgb(241, 180, 62)) /* {&quot;name&quot;:&quot;Yellow&quot;} */" stroke-linecap="round" stroke-linejoin="round" stroke-width="16"></path></g></svg>